#!OML:ASF F:\VICON\USERDATA\INSTALL\rory3\rory3.ASF
:FULLY-SPECIFIED
:DEGREES
197
root 4.42379 17.4252 2.52244 19.1107 -5.51064 -8.51695
lowerback -1.18075 -0.494423 6.47479
upperback -5.37883 -0.413595 3.86859
thorax -4.95121 -0.402171 0.412281
lowerneck -12.9366 0.055342 -2.57369
upperneck 39.0469 0.115405 1.47328
head 16.0662 -0.185539 1.10814
rclavicle -1.79652e-014 3.39922e-014
rhumerus 25.8002 -6.40107 -10.3901
rradius 103.724
rwrist -42.6337
rhand -6.07674 -45.4188
rfingers 7.12502
rthumb 19.7586 -74.4345
lclavicle -1.79652e-014 3.39922e-014
lhumerus 42.6452 17.0728 -1.16983
lradius 36.5452
lwrist 40.7025
lhand -29.6003 -22.439
lfingers 7.12502
lthumb -2.93149 7.52064
rfemur -21.4355 7.30573 3.9636
rtibia 31.7306
rfoot 17.6038 -9.6603
rtoes -28.0219
lfemur -34.672 -2.06564 -17.9353
ltibia 33.5935
lfoot -16.0709 6.29437
ltoes 11.7542
198
root 4.4343 17.4144 2.50543 19.1274 -5.44497 -8.60705
lowerback -1.11393 -0.511141 6.56174
upperback -5.34383 -0.430076 3.872
thorax -4.95467 -0.413584 0.368506
lowerneck -12.6835 0.0300599 -2.56022
upperneck 38.9836 0.0644607 1.47046
head 15.9725 -0.205274 1.09356
rclavicle -2.41026e-015 3.4191e-014
rhumerus 25.7819 -5.73874 -10.5241
rradius 103.265
rwrist -42.0228
rhand -6.60663 -44.7698
rfingers 7.12502
rthumb 19.2491 -73.8371
lclavicle -2.41026e-015 3.4191e-014
lhumerus 42.524 16.491 -1.24785
lradius 36.6442
lwrist 40.9794
lhand -29.7763 -22.7752
lfingers 7.12502
lthumb -3.10146 7.18201
rfemur -21.7268 7.26833 4.05737
rtibia 32.1186
rfoot 17.6943 -9.50732
rtoes -27.352
lfemur -34.9373 -2.02502 -17.8594
ltibia 33.9106
lfoot -16.1359 6.16959
ltoes 11.8852
199
root 4.44189 17.4095 2.49007 19.13 -5.42441 -8.65063
lowerback -1.09456 -0.529587 6.5137
upperback -5.22972 -0.461068 3.88007
thorax -4.84512 -0.422597 0.402169
lowerneck -12.6261 -0.0035526 -2.45714
upperneck 38.9432 0.0309213 1.33885
head 15.939 -0.222242 1.01131
rclavicle -6.98231e-015 -2.22639e-014
rhumerus 25.7688 -5.30078 -10.7211
rradius 102.943
rwrist -41.6854
rhand -7.21261 -44.2175
rfingers 7.12502
rthumb 18.6663 -73.3419
lclavicle -6.98231e-015 -2.22639e-014
lhumerus 42.4454 16.121 -1.28103
lradius 36.6407
lwrist 40.8155
lhand -28.6331 -22.2127
lfingers 7.12502
lthumb -1.99739 7.75768
rfemur -22.0613 7.3415 4.09626
rtibia 32.5276
rfoot 17.6125 -9.66097
rtoes -27.2286
lfemur -35.1716 -1.92319 -17.8481
ltibia 34.1736
lfoot -16.1786 6.03703
ltoes 11.8651
200
root 4.45124 17.4053 2.48068 19.1084 -5.40089 -8.61647
lowerback -1.02864 -0.560813 6.45316
upperback -5.22061 -0.499212 3.84865
thorax -4.8736 -0.440165 0.405004
lowerneck -12.454 -0.0639733 -2.41946
upperneck 38.9012 -0.0784437 1.33401
head 15.8782 -0.263743 0.982735
rclavicle -8.64713e-015 4.96962e-015
rhumerus 25.7325 -4.81819 -10.9504
rradius 102.816
rwrist -41.7809
rhand -7.37587 -44.4289
rfingers 7.12502
rthumb 18.5093 -73.5683
lclavicle -8.64713e-015 4.96962e-015
lhumerus 42.4275 15.7128 -1.12254
lradius 36.6056
lwrist 40.452
lhand -27.0571 -21.5471
lfingers 7.12502
lthumb -0.475198 8.43212
rfemur -22.3416 7.28757 4.05148
rtibia 32.9538
rfoot 17.4872 -9.81674
rtoes -27.2762
lfemur -35.3146 -1.87128 -17.9443
ltibia 34.4133
lfoot -16.2862 5.97928
ltoes 11.7959
